<svg xmlns="http://www.w3.org/2000/svg" width="1706.502" height="482.355" viewBox="0 0 1706.502 482.355">
  <g id="Group_2" data-name="Group 2" transform="translate(-70.746 -1372.822)">
    <path id="path8" d="M305.187,132.17c0-17.883,8.535-26.011,17.477-26.011,13.411,0,16.663,11.38,16.663,26.823,0,83.723-112.578,75.188-112.578,238.162H410.857V309.775H305.187c16.664-61.369,109.326-82.5,109.326-178.012,0-52.835-28.448-84.941-89.818-84.941-92.257,0-91.444,74.375-91.444,119.081h70.717Zm171.1,113.865v64.146h94.289v60.963h70.717V310.181h24.386V253.689H641.295V115.508H614.472c-8.128,43.012-43.894,94.424-43.894,94.83V253.69H517.744c47.551-74.1,70.717-125.584,79.252-202.8H523.027c-1.218,85.687-46.738,193.93-46.738,195.149Zm248.322-78.1h14.632V323.187c0,47.958,34.14,52.835,54.053,52.835,9.349,0,28.856,0,36.579-4.064l-.407-49.989c-15.851-1.22-19.508.407-19.508-25.2V167.936h18.7V115.508h-18.7V62.266H739.243v53.242H724.611ZM892.057,371.145h72.75V189.068c0-10.973,6.1-15.851,16.662-15.851,11.38,0,11.786,18.289,11.786,21.542V371.144H1065.6V178.908c0-23.166,0-69.9-49.989-69.9-26.418,0-32.921,6.5-50.8,33.326v-94.7h-72.75v323.51Z" transform="translate(-156 1326)" fill="#178efd"/>
    <path id="path10" d="M1167.61,371.145h70.717V210.608c0-17.882,0-38.609,17.476-38.609,14.632,0,14.632,16.663,14.632,36.577V371.144h71.122V210.608c0-16.257,0-39.421,17.07-39.421,15.444,0,15.444,19.508,15.444,33.326V371.144H1445.6v-202.8c0-9.754,0-59.337-51.615-59.337-37.391,0-52.429,25.6-57.305,45.925.813-24.385-9.348-45.925-45.926-45.925-34.545,0-51.614,26.011-55.273,40.641V115.508H1167.61V371.145Zm308.47-271.082h72.75V47.635h-72.75Zm0,271.082h72.75V115.508h-72.75Zm104.86,0h71.937V47.635H1580.94ZM1852.43,187.85c0-50.4-27.231-78.845-85.349-78.845-58.524,0-86.974,31.7-86.974,83.722V298.4c0,52.835,29.669,79.253,87.38,79.253,89.413,0,84.942-64.215,84.942-101.605h-68.687v30.888c0,3.252,0,23.167-15.849,23.167-17.478,0-17.478-19.915-17.478-42.269V254.91h102.013V187.85Zm-69.1,20.32h-35.359c0-24.791,0-49.989,18.7-49.989,17.883,0,16.663,25.2,16.663,49.989Z" transform="translate(-156 1326)" fill="#ee2525"/>
    <path id="path12" d="M1852.46,87.867c-.161,22.691,17.542,42,40.071,42,22.853,0,40.877-18.829,40.716-42.164-.161-22.209-18.829-40.071-40.716-40.071C1870.33,47.635,1852.63,65.98,1852.46,87.867Zm75.16-.161c.159,20.759-15.611,36.692-35.084,36.37-19.472-.16-34.922-16.576-34.922-35.887,0-18.829,15.61-35.244,34.922-35.084C1911.69,53.428,1927.46,68.716,1927.62,87.706ZM1877.89,65.98v43.129h6.276V90.925h10.3l7.081,18.185h6.92l-8.046-18.668c4.988-1.932,8.529-4.184,8.368-11.426-.161-13.035-11.427-13.035-15.933-13.035H1877.89Zm6.28,5.633h8.368c6.277,0,10.782,1.447,10.622,7.4-.161,8.047-6.276,7.242-10.622,7.242h-8.368Z" transform="translate(-156 1326)" fill="#5c5b5c"/>
    <path id="path14" d="M226.748,510.751h10.695V461.228h.179l17.8,49.523h9.257l17.8-49.523h.18v49.523h10.7V446.577H277.709l-17.258,50.242h-.18l-17.707-50.242H226.746v64.174Zm91.138-.18-1.169,3.6c-1.258,3.956-2.426,6.473-7.19,6.473a29.888,29.888,0,0,1-4.854-.63v8.629a46.54,46.54,0,0,0,7.1.539c10.7,0,13.123-7.55,16.448-15.909l18.066-48.984h-10.7l-11.774,34.694h-.18L311.5,464.284H300.27l17.616,46.287Zm60.577.18H389.7V482.259h29.03v-9.167H389.7V456.284h33.075v-9.707h-44.31v64.174Zm51.861,0H440.57v-22.11c0-10.246,5.573-15.909,12.584-15.909a36.473,36.473,0,0,1,4.4.45V463.3a24.227,24.227,0,0,0-3.865-.27c-6.292,0-12.4,5.3-13.571,10.246h-.18v-8.988h-9.617v46.468ZM502.5,490.169c1.708-13.932-7.28-27.144-21.931-27.144-13.842,0-22.471,11.324-22.471,24.536,0,14.291,8.18,24.448,22.74,24.448,10.156,0,18.785-5.662,21.032-15.819H492.16c-1.8,5.124-5.394,7.729-11.325,7.729-8.538,0-12.493-6.471-12.493-13.751H502.5Zm-34.154-6.741c.271-6.921,5.123-12.313,12.224-12.313,6.92,0,11.325,5.843,11.684,12.313Zm42.243,27.323h10.247V464.283H510.586Zm0-54.467h10.247v-9.707H510.586ZM552.2,502.662c-8.539,0-12.224-7.729-12.224-15.37,0-7.729,3.146-16.178,12.224-16.178,8.9,0,12.493,7.371,12.493,15.37C564.694,494.393,561.279,502.662,552.2,502.662Zm22.739-38.379H564.694v6.382h-.18c-2.607-5.214-7.91-7.64-13.752-7.64-13.213,0-21.032,10.785-21.032,23.278,0,13.3,6.112,24.447,20.853,24.447a15.912,15.912,0,0,0,13.932-8.179h.18v7.1c0,7.641-3.685,11.865-11.954,11.865-5.213,0-9.887-.989-11.146-6.832H531.349c.9,10.876,11.415,14.472,20.762,14.472,14.651,0,22.83-6.921,22.83-20.852V464.283Zm10.337,46.468h10.246V483.338c0-6.831,4.4-12.224,11.234-12.224,6.022,0,8.9,3.146,9.078,10.426v29.211h10.246V478.844c0-10.426-6.382-15.818-16.447-15.818-6.112,0-11.415,3.146-13.932,7.37h-.18V446.578H585.276v64.173Zm46.917-38.827h7.729v27.412c.181,7.73,2.157,11.864,12.853,11.864,2.247,0,4.405-.358,6.652-.539v-7.909a17.534,17.534,0,0,1-4.314.359c-4.585,0-4.943-2.157-4.943-6.381V471.923h9.258v-7.641h-9.258V450.351H639.924v13.931h-7.729v7.642Zm58.6,19.233H716.95V481.45H690.795Zm118.372-14.2H781.844v8.538h17.077c-.181,10.875-6.472,17.8-17.977,17.616-13.751,0-19.5-12.134-19.5-24.447s5.752-24.447,19.5-24.447c8.09,0,15.46,4.314,16.538,12.763h10.966c-1.709-14.471-13.482-21.93-27.5-21.93-19.233,0-30.738,15.279-30.738,33.614s11.505,33.615,30.738,33.615c7.82,0,13.3-2.247,19.324-9.078l1.708,7.55h7.19V476.957Zm11.055,33.794h10.247V446.577H820.222Zm42.693-6.831c-9.168,0-13.213-8.358-13.213-16.447,0-8,4.045-16.358,13.213-16.358s13.212,8.359,13.212,16.358C876.127,495.562,872.082,503.92,862.915,503.92Zm0,8.09c14.92,0,23.458-10.246,23.458-24.537,0-14.2-8.538-24.447-23.458-24.447s-23.459,10.246-23.459,24.447C839.456,501.764,847.995,512.01,862.915,512.01Zm68.039-24.448c0,8.09-3.505,16.358-12.854,16.358-8.269,0-13.032-7.011-13.032-16.358,0-9.886,4.405-16.447,13.032-16.447,8.451,0,12.854,8,12.854,16.447Zm-35.772,23.189h9.707v-6.382h.18c3.057,6.112,9.8,7.641,16.089,7.641,13.751,0,20.043-11.774,20.043-24.268,0-13.571-7.1-24.717-21.751-24.717-5.212,0-11.055,2.786-13.841,7.28h-.18V446.576H895.182v64.175Zm83.318-15.64c0,6.473-7.011,8.809-11.505,8.809-3.6,0-9.437-1.348-9.437-5.932,0-5.394,3.954-7.011,8.357-7.729,4.495-.809,9.438-.72,12.584-2.786v7.638Zm10.247-18.6c0-9.8-9.528-13.481-18.6-13.481-10.247,0-20.4,3.505-21.122,15.459h10.246c.449-5.033,4.494-7.37,10.246-7.37,4.135,0,9.617.988,9.617,6.292,0,6.021-6.561,5.213-13.932,6.562-8.628.988-17.885,2.875-17.885,14.47,0,9.078,7.549,13.572,15.908,13.572,5.482,0,12.043-1.708,16.088-5.662.81,4.224,3.775,5.662,7.91,5.662a25.784,25.784,0,0,0,6.471-1.168v-7.1a14.149,14.149,0,0,1-2.517.18c-1.888,0-2.426-.988-2.426-3.505V476.507Zm11.323,34.244h10.248V446.577H1000.07Zm47.82,0h43.861v-9.706h-32.626V446.577H1047.89Zm71.45-6.831c-9.168,0-13.213-8.358-13.213-16.447,0-8,4.045-16.358,13.213-16.358s13.212,8.359,13.212,16.358C1132.55,495.562,1128.51,503.92,1119.34,503.92Zm0,8.09c14.92,0,23.458-10.246,23.458-24.537,0-14.2-8.538-24.447-23.458-24.447s-23.459,10.246-23.459,24.447C1095.88,501.764,1104.42,512.01,1119.34,512.01Zm52.22-9.348c-8.539,0-12.224-7.729-12.224-15.37,0-7.729,3.146-16.178,12.224-16.178,8.9,0,12.492,7.371,12.492,15.37C1184.06,494.393,1180.64,502.662,1171.56,502.662Zm22.74-38.379h-10.246v6.382h-.179c-2.607-5.214-7.91-7.64-13.752-7.64-13.213,0-21.032,10.785-21.032,23.278,0,13.3,6.112,24.447,20.852,24.447a15.912,15.912,0,0,0,13.933-8.179h.179v7.1c0,7.641-3.685,11.865-11.953,11.865-5.213,0-9.887-.989-11.146-6.832H1150.71c.9,10.876,11.415,14.472,20.762,14.472,14.651,0,22.829-6.921,22.829-20.852V464.283Zm10.61,46.468h10.247V464.283H1204.91Zm0-54.467h10.247v-9.707H1204.91Zm18.87,39.547c.18,10.966,8.9,16.179,20.582,16.179,9.617,0,20.762-4.045,20.762-15.1,0-9.167-7.55-11.864-15.01-13.571-7.55-1.708-15.1-2.427-15.1-7.46,0-4.045,5.482-4.764,8.448-4.764,4.494,0,8.539,1.349,9.438,6.2h10.695c-1.259-10.336-9.888-14.29-19.415-14.29-8.448,0-19.413,3.146-19.413,13.3,0,9.438,7.369,12.134,14.92,13.751,7.459,1.709,14.92,2.338,15.189,7.73.27,5.3-6.472,6.111-10.336,6.111-5.482,0-9.977-2.156-10.516-8.089H1223.78Zm44.49-23.907H1276v27.412c.181,7.73,2.158,11.864,12.854,11.864,2.246,0,4.4-.358,6.651-.539v-7.909a17.53,17.53,0,0,1-4.314.359c-4.584,0-4.943-2.157-4.943-6.381V471.923h9.258v-7.641h-9.258V450.351H1276v13.931h-7.729v7.642Zm34.88,38.827H1313.4V464.283H1303.15Zm0-54.467H1313.4v-9.707H1303.15Zm63,23.548c-.988-11.414-10.157-16.807-20.942-16.807-15.279,0-22.92,10.965-22.92,24.986,0,13.661,8,24,22.561,24,11.954,0,19.414-6.652,21.3-18.7h-10.246c-.988,6.651-5.124,10.605-11.056,10.605-8.9,0-12.313-8.179-12.313-15.908,0-14.111,7.46-16.9,12.763-16.9,5.662,0,9.8,3.056,10.606,8.718h10.245Zm5.84,16c.179,10.966,8.9,16.179,20.582,16.179,9.616,0,20.762-4.045,20.762-15.1,0-9.167-7.55-11.864-15.01-13.571-7.55-1.708-15.1-2.427-15.1-7.46,0-4.045,5.482-4.764,8.448-4.764,4.494,0,8.539,1.349,9.438,6.2H1411.8c-1.258-10.336-9.887-14.291-19.414-14.291-8.448,0-19.413,3.146-19.413,13.3,0,9.438,7.369,12.134,14.919,13.751,7.46,1.709,14.921,2.338,15.19,7.73.27,5.3-6.472,6.111-10.336,6.111-5.482,0-9.977-2.156-10.516-8.089H1371.99Zm75.59,14.92h11.235V482.259h29.03v-9.167h-29.03V456.284h33.075v-9.707h-44.31v64.174Zm80.53-15.64c0,6.473-7.011,8.809-11.5,8.809-3.6,0-9.438-1.348-9.438-5.932,0-5.394,3.954-7.011,8.358-7.729,4.495-.809,9.438-.72,12.583-2.786v7.638Zm10.25-18.6c0-9.8-9.528-13.481-18.6-13.481-10.247,0-20.4,3.505-21.121,15.459h10.246c.449-5.033,4.493-7.37,10.246-7.37,4.135,0,9.617.988,9.617,6.292,0,6.021-6.562,5.213-13.932,6.562-8.628.988-17.886,2.875-17.886,14.47,0,9.078,7.549,13.572,15.908,13.572,5.482,0,12.044-1.708,16.089-5.662.809,4.224,3.774,5.662,7.91,5.662a25.79,25.79,0,0,0,6.471-1.168v-7.1a14.153,14.153,0,0,1-2.517.18c-1.888,0-2.427-.988-2.427-3.505V476.507Zm52.67,3.325c-.988-11.414-10.156-16.807-20.942-16.807-15.279,0-22.919,10.965-22.919,24.986,0,13.661,8,24,22.561,24,11.953,0,19.413-6.652,21.3-18.7h-10.245c-.989,6.651-5.124,10.605-11.056,10.605-8.9,0-12.313-8.179-12.313-15.908,0-14.111,7.46-16.9,12.763-16.9,5.662,0,9.8,3.056,10.606,8.718h10.244Zm8.63,30.919h10.247V464.283H1599.66Zm0-54.467h10.247v-9.707H1599.66Zm21.66,54.467h10.247V446.577H1621.32v64.174Zm21.66,0h10.248V464.283H1642.98Zm0-54.467h10.248v-9.707H1642.98Zm16.72,15.64h7.729v27.412c.181,7.73,2.157,11.864,12.853,11.864,2.247,0,4.405-.358,6.652-.539v-7.909a17.534,17.534,0,0,1-4.314.359c-4.585,0-4.943-2.157-4.943-6.381V471.923h9.258v-7.641h-9.258V450.351H1667.43v13.931H1659.7v7.642Zm63.27,23.187c0,6.473-7.011,8.809-11.505,8.809-3.595,0-9.437-1.348-9.437-5.932,0-5.394,3.954-7.011,8.358-7.729,4.494-.809,9.438-.72,12.583-2.786v7.638Zm10.25-18.6c0-9.8-9.528-13.481-18.6-13.481-10.247,0-20.4,3.505-21.122,15.459h10.246c.449-5.033,4.494-7.37,10.246-7.37,4.135,0,9.617.988,9.617,6.292,0,6.021-6.561,5.213-13.932,6.562-8.627.988-17.885,2.875-17.885,14.47,0,9.078,7.549,13.572,15.908,13.572,5.482,0,12.044-1.708,16.088-5.662.81,4.224,3.775,5.662,7.91,5.662a25.774,25.774,0,0,0,6.471-1.168v-7.1a14.144,14.144,0,0,1-2.516.18c-1.889,0-2.427-.988-2.427-3.505V476.507Zm6.38-4.583h7.729v27.412c.181,7.73,2.157,11.864,12.853,11.864,2.247,0,4.405-.358,6.651-.539v-7.909a17.526,17.526,0,0,1-4.314.359c-4.584,0-4.942-2.157-4.942-6.381V471.923h9.257v-7.641h-9.257V450.351H1747.33v13.931H1739.6v7.642Zm55.91,32c-9.168,0-13.213-8.358-13.213-16.447,0-8,4.045-16.358,13.213-16.358s13.212,8.359,13.212,16.358C1808.72,495.562,1804.68,503.92,1795.51,503.92Zm0,8.09c14.92,0,23.458-10.246,23.458-24.537,0-14.2-8.538-24.447-23.458-24.447s-23.459,10.246-23.459,24.447C1772.05,501.764,1780.59,512.01,1795.51,512.01Zm32-1.259h10.246v-22.11c0-10.246,5.572-15.909,12.583-15.909a36.472,36.472,0,0,1,4.4.45V463.3a24.168,24.168,0,0,0-3.865-.271c-6.291,0-12.4,5.3-13.571,10.246h-.18v-8.987h-9.616v46.468Z" transform="translate(-156 1326)" fill="#5c5b5c"/>
  </g>
</svg>
